/* XPM */
static char * collect_xpm[] = {
"80 68 437 2",
"  	c None",
". 	c #EFF37B",
"+ 	c #F0F47B",
"@ 	c #808249",
"# 	c #EFF27B",
"$ 	c #F0F37B",
"% 	c #D6DA6F",
"& 	c #535530",
"* 	c #000018",
"= 	c #EEF379",
"- 	c #EFEF7B",
"; 	c #E7E778",
"> 	c #8F8F4F",
", 	c #0E0E1C",
"' 	c #0F0E1C",
") 	c #E9EA76",
"! 	c #EFF077",
"~ 	c #CCCC6B",
"{ 	c #40402D",
"] 	c #000017",
"^ 	c #97974D",
"/ 	c #EEEF78",
"( 	c #EFF078",
"_ 	c #EFF178",
": 	c #EFF07B",
"< 	c #C8C869",
"[ 	c #303129",
"} 	c #030319",
"| 	c #414127",
"1 	c #F3F379",
"2 	c #F2F379",
"3 	c #EFF278",
"4 	c #EFF17A",
"5 	c #EEF378",
"6 	c #BFC367",
"7 	c #737441",
"8 	c #F0F07B",
"9 	c #EEF27A",
"0 	c #EEF279",
"a 	c #EEF178",
"b 	c #F1F17C",
"c 	c #EEF179",
"d 	c #E6EA77",
"e 	c #A0A255",
"f 	c #EFF279",
"g 	c #CBCE69",
"h 	c #383726",
"i 	c #ECF178",
"j 	c #E0E974",
"k 	c #E1E974",
"l 	c #EAF176",
"m 	c #E8F074",
"n 	c #E8EF74",
"o 	c #DEE46F",
"p 	c #757443",
"q 	c #000015",
"r 	c #010018",
"s 	c #EFF478",
"t 	c #DAE371",
"u 	c #D0D86C",
"v 	c #D4DD6F",
"w 	c #EAF175",
"x 	c #E7EF73",
"y 	c #D8DF6C",
"z 	c #D8E06C",
"A 	c #E4EC72",
"B 	c #C8CF64",
"C 	c #000016",
"D 	c #ECF278",
"E 	c #C1C965",
"F 	c #3D412A",
"G 	c #6F7440",
"H 	c #C4C867",
"I 	c #E2E575",
"J 	c #D1D86A",
"K 	c #404332",
"L 	c #45472F",
"M 	c #AAB058",
"N 	c #CAD167",
"O 	c #3E402C",
"P 	c #EEF278",
"Q 	c #EFF37A",
"R 	c #E5E976",
"S 	c #797E44",
"T 	c #000014",
"U 	c #414131",
"V 	c #C4C76A",
"W 	c #ECEF76",
"X 	c #828547",
"Y 	c #100E22",
"Z 	c #00001D",
"` 	c #12121F",
" .	c #575A33",
"..	c #080919",
"+.	c #00001A",
"@.	c #EDF17A",
"#.	c #A4A75A",
"$.	c #0D0D1A",
"%.	c #ADAF5E",
"&.	c #E9ED79",
"*.	c #EFF479",
"=.	c #C8CA68",
"-.	c #474630",
";.	c #080421",
">.	c #05031E",
",.	c #000019",
"'.	c #00001B",
").	c #E4E776",
"!.	c #525437",
"~.	c #5D5E33",
"{.	c #EFF47A",
"].	c #B3B65F",
"^.	c #4D4C33",
"/.	c #1D1B26",
"(.	c #040020",
"_.	c #EEF37A",
":.	c #EDF178",
"<.	c #969852",
"[.	c #11121A",
"}.	c #DBDB6E",
"|.	c #EDEF76",
"1.	c #C8C866",
"2.	c #A2A154",
"3.	c #ECEF77",
"4.	c #BFBF61",
"5.	c #3F3F27",
"6.	c #000318",
"7.	c #E6E673",
"8.	c #E8F073",
"9.	c #EDF278",
"0.	c #EFF175",
"a.	c #F0F073",
"b.	c #E7E770",
"c.	c #89894A",
"d.	c #94944B",
"e.	c #000118",
"f.	c #949951",
"g.	c #E5ED72",
"h.	c #E6EE73",
"i.	c #EFEF73",
"j.	c #DCDC6A",
"k.	c #292920",
"l.	c #BEC263",
"m.	c #272824",
"n.	c #1D1E24",
"o.	c #63673B",
"p.	c #C1C863",
"q.	c #E2E773",
"r.	c #EEF075",
"s.	c #E4E46F",
"t.	c #585836",
"u.	c #EAED75",
"v.	c #E7EB73",
"w.	c #DBDF6E",
"x.	c #5F613A",
"y.	c #00011B",
"z.	c #0C0F22",
"A.	c #747641",
"B.	c #C5C964",
"C.	c #E9ED74",
"D.	c #EFF074",
"E.	c #999750",
"F.	c #171423",
"G.	c #E6EA73",
"H.	c #B1B45D",
"I.	c #48492D",
"J.	c #A6A955",
"K.	c #B1B25C",
"L.	c #44432D",
"M.	c #070321",
"N.	c #EAEE76",
"O.	c #E2E570",
"P.	c #4A4B30",
"Q.	c #02021E",
"R.	c #2D2E21",
"S.	c #302F27",
"T.	c #0D0922",
"U.	c #070320",
"V.	c #D6DF70",
"W.	c #EAF079",
"X.	c #7A7F46",
"Y.	c #0A0A1A",
"Z.	c #EEF27B",
"`.	c #D3DC6E",
" +	c #62673A",
".+	c #F1F57C",
"++	c #B8BC63",
"@+	c #353726",
"#+	c #91974F",
"$+	c #000418",
"%+	c #DFE474",
"&+	c #7C8045",
"*+	c #08091A",
"=+	c #EAEE79",
"-+	c #353829",
";+	c #01031A",
">+	c #02041B",
",+	c #E9EB75",
"'+	c #E8E974",
")+	c #BEBF60",
"!+	c #0C111C",
"~+	c #00011A",
"{+	c #ABAF5F",
"]+	c #1C1D1F",
"^+	c #DDDD6E",
"/+	c #737340",
"(+	c #767946",
"_+	c #080A1C",
":+	c #B3B35B",
"<+	c #000013",
"[+	c #EEF376",
"}+	c #EAF076",
"|+	c #ECF377",
"1+	c #666A39",
"2+	c #010219",
"3+	c #EFF47B",
"4+	c #CBCC67",
"5+	c #313126",
"6+	c #EEF477",
"7+	c #C7CE67",
"8+	c #4A4E30",
"9+	c #010118",
"0+	c #16171B",
"a+	c #EFF17B",
"b+	c #808147",
"c+	c #0A0A19",
"d+	c #EFF475",
"e+	c #646838",
"f+	c #343626",
"g+	c #B4BB5C",
"h+	c #ACAE5D",
"i+	c #272623",
"j+	c #EEF479",
"k+	c #EBF277",
"l+	c #90924E",
"m+	c #A9AD5A",
"n+	c #ECF277",
"o+	c #EEF57A",
"p+	c #EEF17A",
"q+	c #A4A658",
"r+	c #0C091C",
"s+	c #E0E375",
"t+	c #EBEF79",
"u+	c #EFF67B",
"v+	c #EFF77B",
"w+	c #F0F87B",
"x+	c #F0F57B",
"y+	c #DCDF72",
"z+	c #8D8E4B",
"A+	c #0F0F1A",
"B+	c #EDF37A",
"C+	c #EAF279",
"D+	c #B2B762",
"E+	c #ADB160",
"F+	c #D7D770",
"G+	c #ECEC79",
"H+	c #ECED7A",
"I+	c #E5E670",
"J+	c #99994F",
"K+	c #D9DD70",
"L+	c #8B8E4E",
"M+	c #383A2B",
"N+	c #1F2124",
"O+	c #1D1E21",
"P+	c #282820",
"Q+	c #303022",
"R+	c #63643E",
"S+	c #BCBE63",
"T+	c #EFF075",
"U+	c #ECED73",
"V+	c #EFFA74",
"W+	c #CCD06C",
"X+	c #60623A",
"Y+	c #46472C",
"Z+	c #A9AB57",
"`+	c #E2E671",
" @	c #EAED79",
".@	c #B5B761",
"+@	c #DADD72",
"@@	c #717344",
"#@	c #000020",
"$@	c #B5B85E",
"%@	c #D5D86F",
"&@	c #6A6A3F",
"*@	c #B8BB63",
"=@	c #2A2B23",
"-@	c #E3E875",
";@	c #959851",
">@	c #F0F57A",
",@	c #7A7D46",
"'@	c #080819",
")@	c #A3A757",
"!@	c #1B1C1F",
"~@	c #787A44",
"{@	c #060719",
"]@	c #B3B85F",
"^@	c #323325",
"/@	c #F1F174",
"(@	c #B2B25A",
"_@	c #EFF57A",
":@	c #83864A",
"<@	c #0C0C1A",
"[@	c #C8CD68",
"}@	c #47492B",
"|@	c #9F9F4E",
"1@	c #07071A",
"2@	c #ABAF5D",
"3@	c #1E1F1E",
"4@	c #CBCF68",
"5@	c #4A4B2B",
"6@	c #E9F176",
"7@	c #C8CC65",
"8@	c #646737",
"9@	c #63673F",
"0@	c #C6C966",
"a@	c #454529",
"b@	c #ECF478",
"c@	c #E8EF76",
"d@	c #A6AA54",
"e@	c #B6BC62",
"f@	c #000220",
"g@	c #A9AC5A",
"h@	c #232320",
"i@	c #EDF578",
"j@	c #DEE070",
"k@	c #555933",
"l@	c #EAEF79",
"m@	c #B5B861",
"n@	c #9A9D50",
"o@	c #61643B",
"p@	c #E8ED77",
"q@	c #EEF47A",
"r@	c #EDF279",
"s@	c #989552",
"t@	c #000218",
"u@	c #ECF07A",
"v@	c #EAEE77",
"w@	c #EFF378",
"x@	c #E4E875",
"y@	c #DDE172",
"z@	c #B9BD65",
"A@	c #2C2F29",
"B@	c #EFF379",
"C@	c #E7EB77",
"D@	c #65673B",
"E@	c #080B20",
"F@	c #EFF076",
"G@	c #E5EA75",
"H@	c #DBE071",
"I@	c #E9EE77",
"J@	c #EBF177",
"K@	c #E8EC78",
"L@	c #8E924F",
"M@	c #131521",
"N@	c #04061D",
"O@	c #D1D66C",
"P@	c #717441",
"Q@	c #C9CD69",
"R@	c #EAF075",
"S@	c #8D904D",
"T@	c #323524",
"U@	c #CACA64",
"V@	c #EBEB71",
"W@	c #5F633A",
"X@	c #E1E573",
"Y@	c #C9C96C",
"Z@	c #898D4E",
"`@	c #E1E970",
" #	c #EAEF77",
".#	c #757744",
"+#	c #090A1B",
"@#	c #BCBC5C",
"##	c #A3A354",
"$#	c #1C1E1D",
"%#	c #11141B",
"&#	c #B4B95E",
"*#	c #E9EF77",
"=#	c #EDF378",
"-#	c #ECF078",
";#	c #E1E275",
">#	c #BABA62",
",#	c #35352D",
"'#	c #131322",
")#	c #36382A",
"!#	c #575A3B",
"~#	c #56583A",
"{#	c #08081A",
"]#	c #000021",
"^#	c #72753F",
"/#	c #D1D66E",
"(#	c #E3E771",
"_#	c #B4B75C",
":#	c #A5AA54",
"<#	c #C0C761",
"[#	c #E6EE72",
"}#	c #EAEF73",
"|#	c #D6D66A",
"1#	c #C1C666",
"2#	c #B8BC61",
"3#	c #B2B65D",
"4#	c #5A5938",
"5#	c #363926",
"6#	c #E0E574",
"7#	c #DADE6D",
"8#	c #44462B",
"9#	c #000010",
"0#	c #797D45",
"a#	c #E5EC72",
"b#	c #ABAB54",
"c#	c #65663B",
"d#	c #4B4C30",
"e#	c #1E1E23",
"f#	c #C0C465",
"g#	c #E1E571",
"h#	c #757841",
"i#	c #33352A",
"j#	c #CFD668",
"k#	c #EBF073",
"l#	c #CBCB65",
"m#	c #49492F",
"n#	c #03031F",
"o#	c #27281F",
"p#	c #62613B",
"q#	c #13131B",
"r#	c #787C43",
"s#	c #DDE56F",
"t#	c #DDE470",
"u#	c #808344",
"v#	c #000419",
"w#	c #6B6F3D",
"x#	c #BCC260",
"y#	c #C6CD64",
"z#	c #3C3F2A",
"A#	c #36372A",
"B#	c #959B4C",
"C#	c #808544",
"D#	c #13141C",
"                                                                                                                                                                ",
"                                                                                                                                                                ",
"                                                                                                                                                                ",
"                                                                                                                                                                ",
"                                                                                                                                                                ",
"                                                                                              . .                                                               ",
"                                                                                            . . . . .                                                           ",
"                                                                                          . . . . . + @                                                         ",
"                                                                                          . . . # $ % & *                                                       ",
"                                                                                        . = = = - ; > , * ' ) !                                                 ",
"                                                                                        . = = = - ~ { * ] ^ / ( ( _                                             ",
"                                                                                      . . = = = : < [ } | 1 2 ( ( 3 4                                           ",
"                                                                                      5 5 = = = . . 6 7   8 9 = = 0 a a a                                       ",
"                                                                                    5 5 5 = = = . . + b - - 9 = = 0 a a c d e                                   ",
"                                                                                  = 5 5 5 = = = . . . : - - 9 = = 0 a a f g h                                   ",
"                                                                                  4 = = i j k k . . . 9 0 0 l m m m n n o p q r                                 ",
"                                                                                s s = = i t u v . . . = = = w x y z A x B C * *                                 ",
"                                                                                s s = = D E F G H I . = = = w J K L M N O * *                                   ",
"                                                                              P P 0 Q Q R S T C U V + = = = W X Y Z `  ...+.+.                                  ",
"                                                                            a a a 0 . @.#.+.* $.%.&.. = = *.=.-.;.>.    ,.'.                                    ",
"                                                                            0 a a 0 . ).!.] * ~.@.. . = = {.].^./.(.                                            ",
"                                                                          _.0 P P :.c <.[.* * }.i D i = = = |.1.2.                                              ",
"                                                                          = = = = 3.4.5.6.]   7.8.x x 9.= = 0.a.b.c.                                            ",
"                                                                        = = = = = 3.d.e.6.*     f.g.h.9.= = 0.i.j.k.]                                           ",
"                                                                        = = 9.9.i l.m.6.6.      n.o.p.q.9.9.r.s.t.* *                                           ",
"                                                                      c c c u.v.w.x.,.y.y.        q z.A.B.C.D.E.F.>.*                                           ",
"                                                                    . c c c u.G.H.'.y.y.              q I.J.K.L.M.>.                                            ",
"                                                                    . c c c N.O.P.Q.y.                    R.S.T.;.U.                                            ",
"                                V.                                5 5 Q . . W.X.Y.* *                         * *                                               ",
"                              Z.`. +                              5 5 . . .+++@+* *                                                                             ",
"                              @.#+T $+                          5 5 5 . . %+&+*+* *                                                                             ",
"                            . =+-+;+>+                          = = = ,+'+)+!++.~+                                                                              ",
"                          . + {+]+>+;+                        _ = = = '+^+/+* y.y.                                                                              ",
"                          . .+(+_+>+                        _ _ = = = '+:+<+~+y.                                                                                ",
"                        [+}+|+1+2+2+      . _.= = = = = = : 4 4 Q Q 3+4+5+* ,.                                                                                  ",
"                        6+8.7+8+9+0+  _.. . _.= = = = = = a+a+a+. . . b+c+* *                                                                                   ",
"                      d+6+x x e+f+g+8.9 . . _.= = = = = = a+a+a+. .+h+i+* *                                                                                     ",
"                      s j+}+k+l+m+n+}+_.. . {.o+o+_.p+9 9 # # # . .+q+r+* *                                                                                     ",
"                      . . . . s+t+. . . . . u+v+w+x+- - : . . . . + y+z+A+                                                                                      ",
"                      . . . . . . . . . . . B+C+D+E+F+G+H+9 . . . . . I+J+                                                                                      ",
"                      {.{.. . . . . . . 9 K+L+M+N+O+P+Q+R+S+t+9 . . . T+U+                                                                                      ",
"                        V+. . . = = = 9 W+X+C '.y.y.y.y.,.Y+Z+`+. . . .  @.@                                                                                    ",
"                          +@. . = = = @.@@T ~+y.y.          #@$@9 . . . . %@&@                                                                                  ",
"                          +@. . = = *.*@=@* ~+                  -@. . . . @.;@                                                                                  ",
"                          _ _ _ = = >@,@'@* ,.                    a a = = >@)@!@                                                                                ",
"                          _ _ _ = = >@~@{@*                       a a = = {.]@^@          /@(@                                                                  ",
"                            _ _ = = _@:@<@*                       a a = = *.[@}@*         /@|@1@                                                                ",
"                            Q Q = = *.2@3@                        . . = = *.4@5@*       6@7@8@* *                                                               ",
"                            . . = = = C+9@                        . . = = *.0@a@*     b@c@d@C $+*                                                               ",
"                            . . = = = o+e@f@                    . . . = = >@g@h@C   i@b@j@k@] $+                                                                ",
"                              f = = = 3+l@m@                  : _._._.= = >@n@T o@p@q@r@s@T t@t@                                                                ",
"                              _ = = = . . u@v@              s w@= = = = = = x@y@I . + z@A@* *                                                                   ",
"                            _ _ = = = . . . B@w@w@w@5 5 5 s s s = = = = = = Q . . . C@D@E@* *                                                                   ",
"                            F@F@G@H@I@9 Q Q B@w@w@5 5 5 5 s s s 9 9 9 n+k+J@0 . . K@L@M@N@*                                                                     ",
"                          a.i.i.O@P@Q@i = = = = = = = = = = = = - - 8 R@x x i + C@S@T@] *                                                                       ",
"                          U@i.V@P@] W@X@= = = = = = = = = = = = - - Y@Z@`@A  #*@.#+#* * *                                                                       ",
"                            @###$#%#&# #9.I@*#=#9.9.P P P i i -#;#>#,#'#)#!#~#=@{#* * *                                                                         ",
"                            ,.]#] ^#/#G.(#_#:#<#[#}#i.a.|#1#2#3#4#<+] +.'.+.* * * * *                                                                           ",
"                                5#m+6#G.7#8#9#0#a#}#/@b#c#d#e#C C * * +.      * *                                                                               ",
"                                    f#g#h#q i#j#x k#l#m#n#* * * * *                                                                                             ",
"                                    o#p#q#q r#s#x t#u#$+v#y.y.                                                                                                  ",
"                                      C * C w#x#8.y#z#t@$+                                                                                                      ",
"                                              A#B#C#q $+$+                                                                                                      ",
"                                                ,.D#* e.                                                                                                        ",
"                                                    *                                                                                                           ",
"                                                                                                                                                                ",
"                                                                                                                                                                ",
"                                                                                                                                                                "};
