/* XPM */
static char *result[] = {
/* columns rows colors chars-per-pixel */
"80 84 109 2 ",
"   c #000018",
".  c #020018",
"X  c #00001B",
"o  c #00011B",
"O  c #02001B",
"+  c #02011B",
"@  c #080018",
"#  c #080418",
"$  c #100018",
"%  c #1B021B",
"&  c #21021D",
"*  c #26021D",
"=  c #080821",
"-  c #180421",
";  c #210021",
":  c #290421",
">  c #330623",
",  c #370E23",
"<  c #390E23",
"1  c #3F0E23",
"2  c #3C332E",
"3  c #420523",
"4  c #440523",
"5  c #520821",
"6  c #520829",
"7  c #421029",
"8  c #630829",
"9  c #620929",
"0  c #650928",
"q  c #630C29",
"w  c #6B0C29",
"e  c #6E1D2E",
"r  c #731429",
"t  c #731D2E",
"y  c #761D2E",
"u  c #6B1C31",
"i  c #572F2E",
"p  c #4A3F33",
"a  c #4D3F33",
"s  c #573C33",
"d  c #76202E",
"f  c #732031",
"g  c #524233",
"h  c #8C2439",
"j  c #9F2A39",
"k  c #893F3C",
"l  c #A52C39",
"z  c #AA2D39",
"x  c #AA2E39",
"c  c #AD2C39",
"v  c #AD2E39",
"b  c #AA2E3C",
"n  c #AA2F3C",
"m  c #AD3039",
"M  c #B2443F",
"N  c #B8483E",
"B  c #B84B3E",
"V  c #AD3842",
"C  c #9F5E44",
"Z  c #B54542",
"A  c #B55142",
"S  c #BD5542",
"D  c #BD5747",
"F  c #BD5942",
"G  c #B5554A",
"H  c #947E4F",
"J  c #9F794F",
"K  c #BD6142",
"L  c #AA7049",
"P  c #AF764F",
"I  c #B57D52",
"U  c #C36544",
"Y  c #C36644",
"T  c #CE7D4A",
"R  c #9C804F",
"E  c #968152",
"W  c #AD9252",
"Q  c #B59A5A",
"!  c #CE824A",
"~  c #CE864A",
"^  c #D08347",
"/  c #D0874C",
"(  c #D38E4F",
")  c #C6965A",
"_  c #D69252",
"`  c #D69755",
"'  c #D69A55",
"]  c #D89A54",
"[  c #D3925A",
"{  c #D3945A",
"}  c #D3945D",
"|  c #D89F5A",
" . c #E78E5A",
".. c #CEA25A",
"X. c #DEA65A",
"o. c #D6A663",
"O. c #D6AE63",
"+. c #DEAD60",
"@. c #DEAE60",
"#. c #DEAE63",
"$. c #DEBE6B",
"%. c #E1BF65",
"&. c #E7B66B",
"*. c #E7BE6B",
"=. c #E3C165",
"-. c #E4C168",
";. c #E7C36B",
":. c #E7C76B",
">. c None",
/* pixels */
">.>.>.>.>.>.>.>.>.>.>.>.>.>.>.>.>.>.>.>.>.>.>.>.>.>.>.>.>.>.>.>.>.>.>.>.>.>.>.>.>.>.>.>.>.>.>.>.>.>.>.>.>.>.>.>.>.>.>.>.>.>.>.>.>.>.>.>.>.>.>.>.>.>.>.>.>.>.>.>.",
">.>.>.>.>.>.>.>.>.>.>.>.>.x x x n n n n n n n n n n n n n n n n n n n n n n n n n n n n n n n n n n n n n n n n n n n n n n n n x x x >.>.>.>.>.>.>.>.>.>.>.>.>.",
">.>.>.>.>.>.>.>.>.>.>.>.x x x x n n n n n n n n n n n n n n n n n n n n n n n n n n n n n n n n n n n n n n n n n n n n n n n n x x x x >.>.>.>.>.>.>.>.>.>.>.>.",
">.>.>.>.>.>.>.>.>.>.>.z x x x x n n n n n n n n n n n n n n n n n n n n n n n n n n n n n n n n n n n n n n n n n n n n n n n n x x x x l >.>.>.>.>.>.>.>.>.>.>.",
">.>.>.>.>.>.>.>.>.>.b b n n n n n n n n m m m m m m m m m m m m m m m m m m m m m m m m m m m m m m m m m m m m m m m m n n n n n n n n c c >.>.>.>.>.>.>.>.>.>.",
">.>.>.>.>.>.>.>.>.b b b n n n n n n n n m m m m m m m m m m m m m m m m m m m m m m m m m m m m m m m m m m m m m m m m n n n n n n n n c c c >.>.>.>.>.>.>.>.>.",
">.>.>.>.>.>.>.>.b b b b n n n n n n n n m m m m m m m m m m m m m m m m m m m m m m m m m m m m m m m m m m m m m m m m n n n n n n n n c c c c >.>.>.>.>.>.>.>.",
">.>.>.>.>.>.>.m b b b b n n n n n n n n S S S S F F F F F F F F F F F F F F F F F F F F F F F F F F F F F F F F S S S S n n n n n n n n c c c c c >.>.>.>.>.>.>.",
">.>.>.>.>.>.m m n n n n n n n n c c c U ^ ^ ^ ^ ^ ^ ^ ^ ^ ^ ^ ^ ^ ^ ^ ^ ^ ^ ^ ^ ^ ^ ^ ^ ^ ^ ^ ^ ^ ^ ^ ^ ^ ^ ^ ^ ^ ^ ^ ^ U c c c n n n n n n n n v v >.>.>.>.>.>.",
">.>.>.>.>.m m m n n n n n n n n c c N ! ^ ^ ^ ^ ^ ^ ^ ^ ^ ^ ^ ^ ^ ^ ^ ^ ^ ^ ^ ^ ^ ^ ^ ^ ^ ^ ^ ^ ^ ^ ^ ^ ^ ^ ^ ^ ^ ^ ^ ^ ! N c c n n n n n n n n v v v >.>.>.>.>.",
">.>.>.>.m m m m n n n n n n n n c N ! ! ^ ^ ^ ^ ^ ^ ^ ^ ^ ^ ^ ^ ^ ^ ^ ^ ^ ^ ^ ^ ^ ^ ^ ^ ^ ^ ^ ^ ^ ^ ^ ^ ^ ^ ^ ^ ^ ^ ^ ^ ! ! N c n n n n n n n n v v v >.>.>.>.>.",
">.>.>.c m m m m n n n n n n n n N ! ! ! ^ ^ ^ ^ ^ ^ ^ ^ ^ ^ ^ ^ ^ ^ ^ ^ ^ ^ ^ ^ ^ ^ ^ ^ ^ ^ ^ ^ ^ ^ ^ ^ ^ ^ ^ ^ ^ ^ ^ ^ ! ! ! N n n n n n n n n v v v v >.>.>.>.",
">.>.>.x n n n n n n n n m m m B T ! ! ! ^ ^ ^ ^ ^ ^ ^ ^ ^ ^ ^ ^ ^ ^ ^ ^ ^ ^ ^ ^ ^ ^ ^ ^ ^ ^ ^ ^ ^ ^ ^ ^ ^ ^ ^ ^ ^ ^ ^ ^ ! ! ! T B m m m n n n n n n n n c >.>.>.",
">.>.x x n n n n n n n n m m m ! ! ! ! ! ^ ^ ^ ^ ^ ^ ^ ^ ^ ^ ^ ^ ^ ^ ^ ^ ^ ^ ^ ^ ^ ^ ^ ^ ^ ^ ^ ^ ^ ^ ^ ^ ^ ^ ^ ^ ^ ^ ^ ^ ! ! ! ! ! m m m n n n n n n n n c c >.>.",
">.x x x n n n n n n n n m m Y ! ! ! ! ! ^ ^ ^ ^ ^ ^ ^ ^ ^ ^ ^ ^ ^ ^ ^ ^ ^ ^ ^ ^ ^ ^ ^ ^ ^ ^ ^ ^ ^ ^ ^ ^ ^ ^ ^ ^ ^ ^ ^ ^ ! ! ! ! ! Y m m n n n n n n n n c c c >.",
">.x x x n n n n n n n n m Y ! ! ! ! ! ! ^ ^ ^ ^ ^ ^ ^ ^ ^ ^ ^ ^ ^ ^ ^ ^ ^ ^ ^ ^ ^ ^ ^ ^ ^ ^ ^ ^ ^ ^ ^ ^ ^ ^ ^ ^ ^ ^ ^ ^ ! ! ! ! ! ! Y m n n n n n n n n c c c >.",
">.n n n n n n n m m m m K ! ! ! ^ ^ ^ ^ ^ ^ ^ ^ ^ ^ ^ ^ ^ ^ ^ ^ ^ ^ ^ ^ ^ ^ ^ ^ ^ ^ ^ ^ ^ ^ ^ ^ ^ ^ ^ ^ ^ ^ ^ ^ ^ ^ ^ ^ ^ ^ ^ ^ ! ! ! K m m m m n n n n n n n >.",
">.n n n n n n n m m m Z ! ! ! ! ^ ^ ^ ^ ^ ^ ^ ^ ^ ^ ^ ^ ^ ^ ^ ^ ^ ^ ^ ^ ^ ^ ^ ^ ^ ^ ^ ^ ^ ^ ^ ^ ^ ^ ^ ^ ^ ^ ^ ^ ^ ^ ^ ^ ^ ^ ^ ^ ! ! ! ! Z m m m n n n n n n n >.",
">.n n n n n n n m m m Z ! ! ! ! ^ ^ ^ ^ ^ ^ ^ ^ ^ ^ ^ ^ ^ ^ ^ ^ ^ ^ ^ ^ ^ ^ ^ ^ ^ ^ ^ ^ ^ ^ ^ ^ ^ ^ ^ ^ ^ ^ ^ ^ ^ ^ ^ ^ ^ ^ ^ ^ ! ! ! ! Z m m m n n n n n n n >.",
">.n n n n n n n m m m Z ! ! ! ! ^ ^ ^ ^ ^ ^ ^ ^ ^ ^ ^ ^ ^ ^ ^ ^ ^ ^ ^ ^ ^ ^ ^ ^ ^ ^ ^ ^ ^ ^ ^ ^ ^ ^ ^ ^ ^ ^ ^ ^ ^ ^ ^ ^ ^ ^ ^ ^ ! ! ! ! Z m m m n n n n n n n >.",
">.n n n n n n n m m m Z ^ ^ ^ ^ ! ! ! ! ~ ~ ~ ~ ! ! ! ! ! ! ! ! ! ! ! ! ! ! ! ! ! ! ! ! ! ! ! ! ! ! ! ! ! ! ! ! ! ! ! ! ^ ^ ^ ^ ^ ^ ^ ^ Z m m m n n n n n n n >.",
">.n n n n n n n m m m Z ^ ^ ^ ^ ! ! ! ` ' ' ' ' ` ` ` ! ! ! ! ! ! ! ! ! ! ! ! ! ! ! ! ! ! ! ! ! ! ! ! ! ! ! ! ! ! ! ! ! ^ ^ ^ ^ ^ ^ ^ ^ Z m m m n n n n n n n >.",
">.n n n n n n n m m m Z ^ ^ ^ ^ ! ` +.;.;.;.;.;.;.;.;.;.;.;.;.+.+.+.+.` ` ` ` ` ` ` ! ! ! ! ! ! ! ! ! ! ! ! ! ! ! ! ! ! ^ ^ ^ ^ ^ ^ ^ ^ Z m m m n n n n n n n >.",
">.n n n n n n n m m m Z ^ ^ ^ ^ ` ;.;.;.;.;.;.;.;.;.;.;.;.;.;.;.;.;.;.;.;.;.;.;.;.;.;.;.;.;.+.+.#.#.| | X.] ( ( _ / ! ! ^ ^ ^ ^ ^ ^ ^ ^ Z m m m n n n n n n n >.",
">.n n n n n n n m m m Z ! ! ! ` %.-.-.-.=.=.=.=.=.=.=.=.=.=.=.=.=.=.=.=.=.=.=.=.=.=.=.=.=.=.=.=.=.=.=.=.=.=.=.=.=.=.=.=.;.+.! ! ! ! ! ! Z m m m n n n n n n n >.",
">.n n n n n n n m m m Z ! ! ` ;.-.-.-.-.=.=.=.=.=.=.=.=.=.=.=.=.=.=.=.=.=.=.=.=.=.=.=.=.=.=.=.=.=.=.=.=.=.=.=.=.=.=.=.=.;.;.+.! ! ! ! ! Z m m m n n n n n n n >.",
">.n n n n n n n m m m Z ! ` ;.;.-.-.-.-.=.=.=.=.=.=.=.=.=.=.=.=.=.=.=.=.=.=.=.=.=.=.=.=.=.=.=.=.=.=.=.=.=.=.=.=.=.=.=.=.;.;.;.+.! ! ! ! Z m m m n n n n n n n >.",
">.n n n n n n n m m m Z +.;.;.;.-.-.-.-.=.=.=.=.=.=.=.=.=.=.=.=.=.=.=.=.=.=.=.=.=.=.=.=.=.=.=.=.=.=.=.=.=.=.=.=.=.=.=.=.;.;.;.;.#.! ! ! Z m m m n n n n n n n >.",
">.n n n n n n n m m m G =.=.=.=.=.=.=.=.=.=.=.=.=.=.=.=.=.=.=.=.=.=.=.=.=.=.=.=.=.=.=.=.=.=.=.=.=.=.=.=.=.=.=.=.=.=.=.=.=.=.=.=.;.@.~ ~ M c c c n n n n n n n >.",
">.n n n n n n n m m m G =.=.=.=.=.=.=.=.=.=.=.=.=.=.=.=.=.=.=.=.=.=.=.=.=.=.=.=.=.=.=.=.=.=.=.=.=.=.=.=.=.=.=.=.=.=.=.=.=.=.=.=.;.;.@.~ M c c c n n n n n n n >.",
">.n n n n n n n m m m G =.=.=.=.=.=.=.=.=.=.=.=.=.=.=.=.=.=.=.=.=.=.=.=.=.=.=.=.=.=.=.=.=.=.=.=.=.=.=.=.=.=.=.=.=.=.=.=.=.=.=.=.;.;.;.@.M c c c n n n n n n n >.",
">.n n n n n n n m m m G =.=.=.=.=.=.=.=.=.=.=.=.=.=.=.=.=.=.=.=.=.=.=.=.=.=.=.=.=.=.=.=.=.=.=.=.=.=.=.=.=.=.=.=.=.=.=.=.=.=.=.=.;.;.;.;.A c c c n n n n n n n >.",
">.n n n n n n n m m m G ;.;.;.;.=.=.=.=.=.=.=.=.=.=.=.=.=.=.=.=.=.=.=.=.=.=.=.=.=.=.=.=.=.=.=.=.=.=.=.=.=.=.=.=.=.=.=.=.=.=.=.=.;.;.;.;.G m m m n n n n n n n >.",
">.n n n n n n n m m m m [ ;.;.;.=.=.=.=.=.=.=.=.=.=.=.=.=.=.=.=.=.=.=.=.=.=.=.=.=.=.=.=.=.=.=.=.=.=.=.=.=.=.=.=.=.=.=.=.=.=.=.=.;.;.;.[ m m m m n n n n n n n >.",
">.n n n n n n n m m m m m [ ;.;.=.=.=.=.=.=.=.=.=.=.=.=.=.=.=.=.=.=.=.=.=.=.=.=.=.=.=.=.=.=.=.=.=.=.=.=.=.=.=.=.=.=.=.=.=.=.=.=.;.;.[ m m m m m n n n n n n n >.",
">.n n n n n n n m m m m m m [ ;.=.=.=.=.=.=.=.=.=.=.=.=.=.=.=.=.=.=.=.=.=.=.=.=.=.=.=.=.=.=.=.=.=.=.=.=.=.=.=.=.=.=.=.=.=.=.=.=.;.[ m m m m m m n n n n n n n >.",
">.< c c m m m m n n n n m m m o.;.;.;.;.=.=.=.=.=.=.=.=.=.=.=.=.=.=.=.=.=.=.=.=.=.=.=.=.=.=.=.=.=.=.=.=.=.=.=.=.=.=.=.=.;.;.;.;.o.m m m n n n n m m m m l l , >.",
">.  < c m m m m n n n n m m m m } ;.;.;.=.=.=.=.=.=.=.=.=.=.=.=.=.=.=.=.=.=.=.=.=.=.=.=.=.=.=.=.=.=.=.=.=.=.=.=.=.=.=.=.;.;.;.} m m m m n n n n m m m m l ,   >.",
">.    t m m m m n n n n m m m m V } ;.;.=.=.=.=.=.=.=.=.=.=.=.=.=.=.=.=.=.=.=.=.=.=.=.=.=.=.=.=.=.=.=.=.=.=.=.=.=.=.=.=.;.;.} V m m m m n n n n m m m m ,     >.",
">.      u m m m n n n n m m m m V V ;.;.=.=.=.=.=.=.=.=.=.=.=.=.=.=.=.=.=.=.=.=.=.=.=.=.=.=.=.=.=.=.=.=.=.=.=.=.=.=.=.=.;.;.V V m m m m n n n n m m m 7       >.",
">.+ + + @ d m m m m m m n n n n c c D #.:.:.:.:.:.:.:.:.:.:.:.:.:.:.:.:.:.:.:.:.:.:.:.:.:.:.:.:.:.:.:.:.:.:.:.:.:.:.:.:.#.D c c n n n n m m m m l l e   O O O >.",
">.+ + + @ @ d m m m m m n n n n c c c D { { { { { { { { { { { { { { { { { { { { { { { { { { { { { { { { { { { { { { { { D c c c n n n n m m m m l e     O O O >.",
">.+ + + @ @ @ d m m m m n n n n c c c c m m m m m m m m m m m m m m m m m m m m m m m m m m m m m m m m m m m m m m m m c c c c n n n n m m m m e       O O O >.",
">.+ + + @ @ @ @ h m m m n n n n c c c c m m m m m m m m m m m m m m m m m m m m m m m m m m m m m m m m m m m m m m m m c c c c n n n n m m m f         O O O >.",
">.+ + + + + + + @ d m m z z z z n n n n n n n n n n n n n n n n n n n n n n n n n n n n n n n n n n n n n n n n n n n n n n n n z z z z c c y @ + + + + O O O >.",
">.+ + + + + + + @ @ d m z z z z n n n n n n n n n n n n n n n n n n n n n n n n n n n n n n n n n n n n n n n n n n n n n n n n z z z z c y @ @ + + + + O O O >.",
">.+ + + + + + + @ @ @ m z z z z n n n n n n n n n n n n n n n n n n n n n n n n n n n n n n n n n n n n n n n n n n n n n n n n z z z z c @ @ @ + + + + O O O >.",
">.+ + + + + + + @ @ @ @ j z z z n n n n n n n n n n n n n n n n n n n n n n n n n n n n n n n n n n n n n n n n n n n n n n n n z z z j 1 @ @ @ + + + + O O O >.",
">.+ + + + + + + + + + + > w w w r r r r r r r r r r r r r r r r r r r r r r r r r r r r r r r r r r r r r r r r r r r r r r r r w w w > + + + + + + + + O O O >.",
">.+ + + + + + + + + + + - w w w 9 9 9 9 9 9 9 9 9 9 9 9 9 9 9 9 9 9 9 9 9 9 9 9 9 9 9 9 9 9 9 9 9 9 9 9 9 9 9 9 9 9 9 9 9 9 9 9 w w w - + + + + + + + + O O O >.",
">.+ + + + + + + + + + + - w w w 9 9 9 9 9 9 9 9 9 9 9 9 9 9 9 9 9 9 9 9 9 9 9 9 9 9 9 9 9 9 9 9 9 9 9 9 9 9 9 9 9 9 9 9 9 9 9 9 w w w - + + + + + + + + O O O >.",
">.+ + + + + + + + + + + - w w w 9 9 9 9 9 9 9 9 9 9 9 9 9 9 9 9 9 9 9 9 9 9 9 9 9 9 9 9 9 9 9 9 9 9 9 9 9 9 9 9 9 9 9 9 9 9 9 9 w w w - + + + + + + + + O O O >.",
">.+ + + + + + + + + + + - 8 8 8 9 9 9 9 9 9 9 9 9 9 9 9 9 9 9 9 9 9 9 9 9 9 9 9 9 9 9 9 9 9 9 9 9 9 9 9 9 9 9 9 9 9 9 9 9 9 9 9 8 8 8 - + + + + + + + + O O O >.",
">.+ + + + + + + + + + + - 8 8 8 9 9 9 9 9 9 9 9 9 9 9 9 9 9 9 9 9 9 9 9 9 9 9 9 9 9 9 9 9 9 9 9 9 9 9 9 9 9 9 9 9 9 9 9 9 9 9 9 8 8 8 - + + + + + + + + O O O >.",
">.+ + + + + + + + + + + - 8 8 8 9 9 9 9 9 9 9 9 9 9 9 9 9 9 9 9 9 9 9 9 9 9 9 9 9 9 9 9 9 9 9 9 9 9 9 9 9 9 9 9 9 9 9 9 9 9 9 9 8 8 8 - + + + + + + + + O O O >.",
">.+ + + + + + + + + + + - 8 8 8 9 9 9 9 9 9 9 9 9 9 9 9 9 9 9 9 9 9 9 9 9 9 9 9 9 9 9 9 9 9 9 9 9 9 9 9 9 9 9 9 9 9 9 9 9 9 9 9 8 8 8 - + + + + + + + + O O O >.",
">.+ + + + + + + + + + + - 8 8 8 9 9 9 9 9 9 9 9 9 9 9 9 q q q q I ;.;.;.=.=.=.=.=.=.=.=.;.;.;.) 8 8 8 8 9 9 9 9 9 9 9 9 9 9 9 9 8 8 8 - + + + + + + + + O O O >.",
">.+ + + + + + + + + + + - 8 8 8 9 9 9 9 9 9 9 9 9 9 9 9 q q q q ;.;.;.;.=.=.=.=.=.=.=.=.;.;.;.;.k 8 8 8 9 9 9 9 9 9 9 9 9 9 9 9 8 8 8 - + + + + + + + + O O O >.",
">.+ + + + + + + + + + + - 8 8 8 9 9 9 9 9 9 9 9 9 9 9 9 q q q L ;.;.;.;.=.=.=.=.=.=.=.=.;.;.;.;.O.8 8 8 9 9 9 9 9 9 9 9 9 9 9 9 8 8 8 - + + + + + + + + O O O >.",
">.+ + + + + + + + + + + - 8 8 8 9 9 9 9 9 9 9 9 9 9 9 9 q q q ..;.;.;.;.=.=.=.=.=.=.=.=.;.;.;.;.O.P 8 8 9 9 9 9 9 9 9 9 9 9 9 9 8 8 8 - + + + + + + + + O O O >.",
">.+ + + + + + + + + + + - 8 8 8 9 9 9 9 9 9 9 9 9 9 9 9 i i C  .*.*.*.*.=.=.=.=.=.=.=.=.$.$.$.$.&.&.s s 9 9 9 9 9 9 9 9 9 9 9 9 8 8 8 - + + + + + + + + + + + >.",
">.+ + + + + + + + + + + - 8 8 8 9 9 9 9 9 9 9 9 9 9 9 9 i i $ C *.*.*.*.=.=.=.=.=.=.=.=.$.$.$.$.&.J s s 9 9 9 9 9 9 9 9 9 9 9 9 8 8 8 - + + + + + + + + + + >.>.",
">.>.+ + + + + + + + + + - 8 8 8 9 9 9 9 9 9 9 9 9 9 9 9 i i $ $ a *.*.*.=.=.=.=.=.=.=.=.$.$.$.$.s $ $ $ 9 9 9 9 9 9 9 9 9 9 9 9 8 8 8 - + + + + + + + + + + >.>.",
">.>.+ + + + + + + + + + - 8 8 8 9 9 9 9 9 9 9 9 9 9 9 9 i $ $ $   a *.*.=.=.=.=.=.=.=.=.$.$.E = $ $ $ $ 9 9 9 9 9 9 9 9 9 9 9 9 8 8 8 - + + + + + + + + + >.>.>.",
">.>.>.o + + + + + + + + - 8 8 8 9 9 9 9 9 9 9 9 0 0 0 0 5             W $.$.$.$.*.*.*.*.Q 2     + + + + * 8 8 8 9 9 9 9 9 9 9 9 8 8 8 - + + + + + + + + O >.>.>.",
">.>.>.o + + + + + + + + - 8 8 8 9 9 9 9 9 9 9 9 0 0 0 0 %               H $.$.$.*.*.*.g         + + + + @ 8 8 8 9 9 9 9 9 9 9 9 8 8 8 - + + + + + + + + >.>.>.>.",
">.>.>.>.+ + + + + + + + - 8 8 8 9 9 9 9 9 9 9 9 0 0 0 0                   p $.$.*.R # #         + + + + @ * 8 8 9 9 9 9 9 9 9 9 8 8 8 - + + + + + + + + >.>.>.>.",
">.>.>.>.>.+ + + + + + + - 8 8 8 9 9 9 9 9 9 9 9 0 0 0 0 5                   p H g # # #         + + + + * 8 8 8 9 9 9 9 9 9 9 9 8 8 8 - + + + + + + + >.>.>.>.>.",
">.>.>.>.>.      + + + + - 8 8 8 9 9 9 9 9 9 9 9 9 9 9 9 8 4 @ @         + + + + + + + + . . . .       & 9 9 9 9 9 9 9 9 9 9 9 9 8 8 8 - + + + + + + + >.>.>.>.>.",
">.>.>.>.>.>.    + + + + - 8 8 8 9 9 9 9 9 9 9 9 9 9 9 9 8 8 4 @         + + + + + + + + . . . .     3 8 9 9 9 9 9 9 9 9 9 9 9 9 8 8 8 - + + + + + + >.>.>.>.>.>.",
">.>.>.>.>.>.    + + + + - 8 8 8 9 9 9 9 9 9 9 9 9 9 9 9 8 8 8 4         + + + + + + + + . . . .   3 8 8 9 9 9 9 9 9 9 9 9 9 9 9 8 8 8 - + + + + + + >.>.>.>.>.>.",
">.>.>.>.>.>.>.  + + + + - 8 8 8 9 9 9 9 9 9 9 9 9 9 9 9 8 8 8 8 6       + + + + + + + + . . . @ 8 8 8 8 9 9 9 9 9 9 9 9 9 9 9 9 8 8 8 - + + + + + >.>.>.>.>.>.>.",
">.>.>.>.>.>.>.  + + + + - 8 8 8 9 9 9 9 9 9 9 9 9 9 9 9 9 9 9 9 8 4 @ @                       8 9 9 9 9 9 9 9 9 9 9 9 9 9 9 9 9 8 8 8 - + + + + X >.>.>.>.>.>.>.",
">.>.>.>.>.>.>.>.+ + + + - 8 8 8 9 9 9 9 9 9 9 9 9 9 9 9 9 9 9 9 8 8 4 @                   & 8 8 9 9 9 9 9 9 9 9 9 9 9 9 9 9 9 9 8 8 8 - + + + + >.>.>.>.>.>.>.>.",
">.>.>.>.>.>.>.>.+ + + + - 8 8 8 9 9 9 9 9 9 9 9 9 9 9 9 9 9 9 9 8 8 8 4                 & 8 8 8 9 9 9 9 9 9 9 9 9 9 9 9 9 9 9 9 8 8 8 - + + + + >.>.>.>.>.>.>.>.",
">.>.>.>.>.>.>.>.>.+ + + - 8 8 8 9 9 9 9 9 9 9 9 9 9 9 9 9 9 9 9 8 8 8 8 6             : 8 8 8 8 9 9 9 9 9 9 9 9 9 9 9 9 9 9 9 9 8 8 8 - + + + >.>.>.>.>.>.>.>.>.",
">.>.>.>.>.>.>.>.>.o o o - 8 8 8 9 9 9 9 9 9 9 9 9 9 9 9 9 9 9 9 9 9 9 9 8 4 @ @     3 8 9 9 9 9 9 9 9 9 9 9 9 9 9 9 9 9 9 9 9 9 8 8 8 - + + + >.>.>.>.>.>.>.>.>.",
">.>.>.>.>.>.>.>.>.>.o o - 8 8 8 9 9 9 9 9 9 9 9 9 9 9 9 9 9 9 9 9 9 9 9 8 8 4 @   3 8 8 9 9 9 9 9 9 9 9 9 9 9 9 9 9 9 9 9 9 9 9 8 8 8 - + + >.>.>.>.>.>.>.>.>.>.",
">.>.>.>.>.>.>.>.>.>.o o - 8 8 8 9 9 9 9 9 9 9 9 9 9 9 9 9 9 9 9 9 9 9 9 8 8 8 4 8 8 8 8 9 9 9 9 9 9 9 9 9 9 9 9 9 9 9 9 9 9 9 9 8 8 8 - + + >.>.>.>.>.>.>.>.>.>.",
">.>.>.>.>.>.>.>.>.>.>.o - 8 8 8 9 9 9 9 9 9 9 9 9 9 9 9 9 9 9 9 9 9 9 9 8 8 8 8 8 8 8 8 9 9 9 9 9 9 9 9 9 9 9 9 9 9 9 9 9 9 9 9 8 8 8 - + >.>.>.>.>.>.>.>.>.>.>.",
">.>.>.>.>.>.>.>.>.>.>.  ; 8 8 8 0 0 0 0 0 0 0 0 0 0 0 0 0 0 0 0 0 0 0 0 0 0 0 0 0 0 0 0 0 0 0 0 0 0 0 0 0 0 0 0 0 0 0 0 0 0 0 0 8 8 8 ;   >.>.>.>.>.>.>.>.>.>.>.",
">.>.>.>.>.>.>.>.>.>.>.>.; 8 8 8 0 0 0 0 0 0 0 0 0 0 0 0 0 0 0 0 0 0 0 0 0 0 0 0 0 0 0 0 0 0 0 0 0 0 0 0 0 0 0 0 0 0 0 0 0 0 0 0 8 8 8 ; >.>.>.>.>.>.>.>.>.>.>.>.",
">.>.>.>.>.>.>.>.>.>.>.>.; 8 8 8 0 0 0 0 0 0 0 0 0 0 0 0 0 0 0 0 0 0 0 0 0 0 0 0 0 0 0 0 0 0 0 0 0 0 0 0 0 0 0 0 0 0 0 0 0 0 0 0 8 8 8 ; >.>.>.>.>.>.>.>.>.>.>.>.",
">.>.>.>.>.>.>.>.>.>.>.>.>.>.>.>.>.>.>.>.>.>.>.>.>.>.>.>.>.>.>.>.>.>.>.>.>.>.>.>.>.>.>.>.>.>.>.>.>.>.>.>.>.>.>.>.>.>.>.>.>.>.>.>.>.>.>.>.>.>.>.>.>.>.>.>.>.>.>.>."
};
